<svg xmlns="http://www.w3.org/2000/svg" viewBox="0 0 10.02 5"><defs><style>.cls-1{fill:#6f6e6e;}</style></defs><title>filter-righht--icon-2</title><g id="Слой_2" data-name="Слой 2"><g id="Слой_1-2" data-name="Слой 1"><path class="cls-1" d="M5,0a.73.73,0,0,1,.46.17L9.76,3.74a.7.7,0,0,1,.26.48A.72.72,0,0,1,9.37,5a.69.69,0,0,1-.52-.16L5,1.64,1.19,4.72a.6.6,0,0,1-.25.13.65.65,0,0,1-.28,0A.79.79,0,0,1,.4,4.8a.79.79,0,0,1-.22-.18A.82.82,0,0,1,0,4.36a.57.57,0,0,1,0-.29.76.76,0,0,1,.09-.28.79.79,0,0,1,.19-.22L4.57.12A.71.71,0,0,1,5,0Z"/></g></g></svg>